ISO-10303-21;
HEADER;
/* Generated by software containing ST-Developer
 * from STEP Tools, Inc. (www.steptools.com) 
 */
/* OPTION: using custom renumber hook */

FILE_DESCRIPTION(
/* description */ ('STEP AP242 Edition 2',
'CAx-IF Rec.Pracs.---Representation and Presentation of Product Manufa
cturing Information (PMI)---4.0---2014-10-13',
'CAx-IF Rec.Pracs.---3D Tessellated Geometry---0.4---2014-09-14','2;1',
'CAx-IF Rec.Pracs.---User Defined Attributes---1.5---2016-08-15'),
/* implementation_level */ '2;1');

FILE_NAME(
/* name */ 'Part Studio 1 - Part 8',
/* time_stamp */ '2026-05-08T13:52:43Z',
/* author */ (''),
/* organization */ (''),
/* preprocessor_version */ 'ST-DEVELOPER v20',
/* originating_system */ 'ONSHAPE BY PTC INC, 1.214',
/* authorisation */ '  ');

FILE_SCHEMA (('AP242_MANAGED_MODEL_BASED_3D_ENGINEERING_MIM_LF { 1 0 10303 442 3 1 4 }'));
ENDSEC;

DATA;
#10=SHAPE_REPRESENTATION_RELATIONSHIP('','',#213,#11);
#11=ADVANCED_BREP_SHAPE_REPRESENTATION('',(#211),#327);
#12=OVER_RIDING_STYLED_ITEM('',(#199),#195,#197);
#13=DRAUGHTING_PRE_DEFINED_COLOUR('black');
#14=ORIENTED_EDGE('',*,*,#62,.F.);
#15=ORIENTED_EDGE('',*,*,#63,.F.);
#16=ORIENTED_EDGE('',*,*,#64,.T.);
#17=ORIENTED_EDGE('',*,*,#65,.T.);
#18=ORIENTED_EDGE('',*,*,#66,.T.);
#19=ORIENTED_EDGE('',*,*,#67,.F.);
#20=ORIENTED_EDGE('',*,*,#68,.F.);
#21=ORIENTED_EDGE('',*,*,#63,.T.);
#22=ORIENTED_EDGE('',*,*,#69,.T.);
#23=ORIENTED_EDGE('',*,*,#70,.F.);
#24=ORIENTED_EDGE('',*,*,#71,.F.);
#25=ORIENTED_EDGE('',*,*,#67,.T.);
#26=ORIENTED_EDGE('',*,*,#72,.F.);
#27=ORIENTED_EDGE('',*,*,#65,.F.);
#28=ORIENTED_EDGE('',*,*,#73,.T.);
#29=ORIENTED_EDGE('',*,*,#70,.T.);
#30=ORIENTED_EDGE('',*,*,#64,.F.);
#31=ORIENTED_EDGE('',*,*,#68,.T.);
#32=ORIENTED_EDGE('',*,*,#71,.T.);
#33=ORIENTED_EDGE('',*,*,#73,.F.);
#34=ORIENTED_EDGE('',*,*,#74,.F.);
#35=ORIENTED_EDGE('',*,*,#75,.T.);
#36=ORIENTED_EDGE('',*,*,#76,.T.);
#37=ORIENTED_EDGE('',*,*,#77,.F.);
#38=ORIENTED_EDGE('',*,*,#62,.T.);
#39=ORIENTED_EDGE('',*,*,#72,.T.);
#40=ORIENTED_EDGE('',*,*,#69,.F.);
#41=ORIENTED_EDGE('',*,*,#66,.F.);
#42=ORIENTED_EDGE('',*,*,#75,.F.);
#43=ORIENTED_EDGE('',*,*,#78,.F.);
#44=ORIENTED_EDGE('',*,*,#79,.T.);
#45=ORIENTED_EDGE('',*,*,#80,.T.);
#46=ORIENTED_EDGE('',*,*,#74,.T.);
#47=ORIENTED_EDGE('',*,*,#81,.F.);
#48=ORIENTED_EDGE('',*,*,#82,.F.);
#49=ORIENTED_EDGE('',*,*,#78,.T.);
#50=ORIENTED_EDGE('',*,*,#77,.T.);
#51=ORIENTED_EDGE('',*,*,#83,.F.);
#52=ORIENTED_EDGE('',*,*,#84,.F.);
#53=ORIENTED_EDGE('',*,*,#81,.T.);
#54=ORIENTED_EDGE('',*,*,#76,.F.);
#55=ORIENTED_EDGE('',*,*,#80,.F.);
#56=ORIENTED_EDGE('',*,*,#85,.T.);
#57=ORIENTED_EDGE('',*,*,#83,.T.);
#58=ORIENTED_EDGE('',*,*,#79,.F.);
#59=ORIENTED_EDGE('',*,*,#82,.T.);
#60=ORIENTED_EDGE('',*,*,#84,.T.);
#61=ORIENTED_EDGE('',*,*,#85,.F.);
#62=EDGE_CURVE('',#86,#87,#102,.T.);
#63=EDGE_CURVE('',#88,#86,#103,.T.);
#64=EDGE_CURVE('',#88,#89,#104,.T.);
#65=EDGE_CURVE('',#89,#87,#105,.T.);
#66=EDGE_CURVE('',#86,#90,#106,.T.);
#67=EDGE_CURVE('',#91,#90,#107,.T.);
#68=EDGE_CURVE('',#88,#91,#108,.T.);
#69=EDGE_CURVE('',#90,#92,#109,.T.);
#70=EDGE_CURVE('',#93,#92,#110,.T.);
#71=EDGE_CURVE('',#91,#93,#111,.T.);
#72=EDGE_CURVE('',#87,#92,#112,.T.);
#73=EDGE_CURVE('',#89,#93,#113,.T.);
#74=EDGE_CURVE('',#94,#95,#114,.T.);
#75=EDGE_CURVE('',#94,#96,#115,.T.);
#76=EDGE_CURVE('',#96,#97,#116,.T.);
#77=EDGE_CURVE('',#95,#97,#117,.T.);
#78=EDGE_CURVE('',#98,#94,#118,.T.);
#79=EDGE_CURVE('',#98,#99,#119,.T.);
#80=EDGE_CURVE('',#99,#96,#120,.T.);
#81=EDGE_CURVE('',#100,#95,#121,.T.);
#82=EDGE_CURVE('',#98,#100,#122,.T.);
#83=EDGE_CURVE('',#101,#97,#123,.T.);
#84=EDGE_CURVE('',#100,#101,#124,.T.);
#85=EDGE_CURVE('',#99,#101,#125,.T.);
#86=VERTEX_POINT('',#277);
#87=VERTEX_POINT('',#278);
#88=VERTEX_POINT('',#280);
#89=VERTEX_POINT('',#282);
#90=VERTEX_POINT('',#286);
#91=VERTEX_POINT('',#288);
#92=VERTEX_POINT('',#292);
#93=VERTEX_POINT('',#294);
#94=VERTEX_POINT('',#302);
#95=VERTEX_POINT('',#303);
#96=VERTEX_POINT('',#305);
#97=VERTEX_POINT('',#307);
#98=VERTEX_POINT('',#311);
#99=VERTEX_POINT('',#313);
#100=VERTEX_POINT('',#317);
#101=VERTEX_POINT('',#321);
#102=LINE('',#276,#126);
#103=LINE('',#279,#127);
#104=LINE('',#281,#128);
#105=LINE('',#283,#129);
#106=LINE('',#285,#130);
#107=LINE('',#287,#131);
#108=LINE('',#289,#132);
#109=LINE('',#291,#133);
#110=LINE('',#293,#134);
#111=LINE('',#295,#135);
#112=LINE('',#297,#136);
#113=LINE('',#298,#137);
#114=LINE('',#301,#138);
#115=LINE('',#304,#139);
#116=LINE('',#306,#140);
#117=LINE('',#308,#141);
#118=LINE('',#310,#142);
#119=LINE('',#312,#143);
#120=LINE('',#314,#144);
#121=LINE('',#316,#145);
#122=LINE('',#318,#146);
#123=LINE('',#320,#147);
#124=LINE('',#322,#148);
#125=LINE('',#324,#149);
#126=VECTOR('',#230,1.);
#127=VECTOR('',#231,1.);
#128=VECTOR('',#232,1.);
#129=VECTOR('',#233,1.);
#130=VECTOR('',#236,1.);
#131=VECTOR('',#237,1.);
#132=VECTOR('',#238,1.);
#133=VECTOR('',#241,1.);
#134=VECTOR('',#242,1.);
#135=VECTOR('',#243,1.);
#136=VECTOR('',#246,1.);
#137=VECTOR('',#247,1.);
#138=VECTOR('',#252,1.);
#139=VECTOR('',#253,1.);
#140=VECTOR('',#254,1.);
#141=VECTOR('',#255,1.);
#142=VECTOR('',#258,1.);
#143=VECTOR('',#259,1.);
#144=VECTOR('',#260,1.);
#145=VECTOR('',#263,1.);
#146=VECTOR('',#264,1.);
#147=VECTOR('',#267,1.);
#148=VECTOR('',#268,1.);
#149=VECTOR('',#271,1.);
#150=EDGE_LOOP('',(#14,#15,#16,#17));
#151=EDGE_LOOP('',(#18,#19,#20,#21));
#152=EDGE_LOOP('',(#22,#23,#24,#25));
#153=EDGE_LOOP('',(#26,#27,#28,#29));
#154=EDGE_LOOP('',(#30,#31,#32,#33));
#155=EDGE_LOOP('',(#34,#35,#36,#37));
#156=EDGE_LOOP('',(#38,#39,#40,#41));
#157=EDGE_LOOP('',(#42,#43,#44,#45));
#158=EDGE_LOOP('',(#46,#47,#48,#49));
#159=EDGE_LOOP('',(#50,#51,#52,#53));
#160=EDGE_LOOP('',(#54,#55,#56,#57));
#161=EDGE_LOOP('',(#58,#59,#60,#61));
#162=FACE_BOUND('',#150,.T.);
#163=FACE_BOUND('',#151,.T.);
#164=FACE_BOUND('',#152,.T.);
#165=FACE_BOUND('',#153,.T.);
#166=FACE_BOUND('',#154,.T.);
#167=FACE_BOUND('',#155,.T.);
#168=FACE_BOUND('',#156,.T.);
#169=FACE_BOUND('',#157,.T.);
#170=FACE_BOUND('',#158,.T.);
#171=FACE_BOUND('',#159,.T.);
#172=FACE_BOUND('',#160,.T.);
#173=FACE_BOUND('',#161,.T.);
#174=PLANE('',#215);
#175=PLANE('',#216);
#176=PLANE('',#217);
#177=PLANE('',#218);
#178=PLANE('',#219);
#179=PLANE('',#220);
#180=PLANE('',#221);
#181=PLANE('',#222);
#182=PLANE('',#223);
#183=PLANE('',#224);
#184=PLANE('',#225);
#185=ADVANCED_FACE('',(#162),#174,.T.);
#186=ADVANCED_FACE('',(#163),#175,.F.);
#187=ADVANCED_FACE('',(#164),#176,.F.);
#188=ADVANCED_FACE('',(#165),#177,.T.);
#189=ADVANCED_FACE('',(#166),#178,.T.);
#190=ADVANCED_FACE('',(#167,#168),#179,.F.);
#191=ADVANCED_FACE('',(#169),#180,.T.);
#192=ADVANCED_FACE('',(#170),#181,.F.);
#193=ADVANCED_FACE('',(#171),#182,.F.);
#194=ADVANCED_FACE('',(#172),#183,.T.);
#195=ADVANCED_FACE('Face appearance 1',(#173),#184,.T.);
#196=CLOSED_SHELL('',(#185,#186,#187,#188,#189,#190,#191,#192,#193,#194,
#195));
#197=STYLED_ITEM('',(#198),#211);
#198=PRESENTATION_STYLE_ASSIGNMENT((#200));
#199=PRESENTATION_STYLE_ASSIGNMENT((#201));
#200=SURFACE_STYLE_USAGE(.BOTH.,#202);
#201=SURFACE_STYLE_USAGE(.BOTH.,#203);
#202=SURFACE_SIDE_STYLE('',(#204));
#203=SURFACE_SIDE_STYLE('',(#205));
#204=SURFACE_STYLE_FILL_AREA(#206);
#205=SURFACE_STYLE_FILL_AREA(#207);
#206=FILL_AREA_STYLE('',(#208));
#207=FILL_AREA_STYLE('',(#209));
#208=FILL_AREA_STYLE_COLOUR('',#210);
#209=FILL_AREA_STYLE_COLOUR('',#13);
#210=COLOUR_RGB('',0.647058823529412,0.647058823529412,0.647058823529412);
#211=MANIFOLD_SOLID_BREP('Part 8',#196);
#212=SHAPE_DEFINITION_REPRESENTATION(#332,#213);
#213=SHAPE_REPRESENTATION('Part 8',(#214),#327);
#214=AXIS2_PLACEMENT_3D('',#274,#226,#227);
#215=AXIS2_PLACEMENT_3D('',#275,#228,#229);
#216=AXIS2_PLACEMENT_3D('',#284,#234,#235);
#217=AXIS2_PLACEMENT_3D('',#290,#239,#240);
#218=AXIS2_PLACEMENT_3D('',#296,#244,#245);
#219=AXIS2_PLACEMENT_3D('',#299,#248,#249);
#220=AXIS2_PLACEMENT_3D('',#300,#250,#251);
#221=AXIS2_PLACEMENT_3D('',#309,#256,#257);
#222=AXIS2_PLACEMENT_3D('',#315,#261,#262);
#223=AXIS2_PLACEMENT_3D('',#319,#265,#266);
#224=AXIS2_PLACEMENT_3D('',#323,#269,#270);
#225=AXIS2_PLACEMENT_3D('',#325,#272,#273);
#226=DIRECTION('',(0.,0.,1.));
#227=DIRECTION('',(1.,0.,0.));
#228=DIRECTION('',(0.,1.,0.));
#229=DIRECTION('',(0.,0.,1.));
#230=DIRECTION('',(1.,0.,0.));
#231=DIRECTION('',(0.,0.,-1.));
#232=DIRECTION('',(1.,0.,0.));
#233=DIRECTION('',(0.,0.,-1.));
#234=DIRECTION('',(1.,0.,0.));
#235=DIRECTION('',(0.,0.,-1.));
#236=DIRECTION('',(0.,-1.,0.));
#237=DIRECTION('',(0.,0.,-1.));
#238=DIRECTION('',(0.,-1.,0.));
#239=DIRECTION('',(0.,1.,0.));
#240=DIRECTION('',(0.,0.,1.));
#241=DIRECTION('',(1.,0.,0.));
#242=DIRECTION('',(0.,0.,-1.));
#243=DIRECTION('',(1.,0.,0.));
#244=DIRECTION('',(1.,0.,0.));
#245=DIRECTION('',(0.,0.,-1.));
#246=DIRECTION('',(0.,-1.,0.));
#247=DIRECTION('',(0.,-1.,0.));
#248=DIRECTION('',(0.,0.,1.));
#249=DIRECTION('',(1.,0.,0.));
#250=DIRECTION('',(0.,0.,1.));
#251=DIRECTION('',(1.,0.,0.));
#252=DIRECTION('',(1.,0.,0.));
#253=DIRECTION('',(0.,-1.,0.));
#254=DIRECTION('',(1.,-6.26819684183128E-17,0.));
#255=DIRECTION('',(0.,-1.,0.));
#256=DIRECTION('',(-1.,0.,0.));
#257=DIRECTION('',(0.,0.,1.));
#258=DIRECTION('',(0.,0.,1.));
#259=DIRECTION('',(0.,-1.,0.));
#260=DIRECTION('',(0.,0.,1.));
#261=DIRECTION('',(0.,-1.,0.));
#262=DIRECTION('',(0.,0.,-1.));
#263=DIRECTION('',(0.,0.,1.));
#264=DIRECTION('',(1.,0.,0.));
#265=DIRECTION('',(-1.,0.,0.));
#266=DIRECTION('',(0.,0.,1.));
#267=DIRECTION('',(0.,0.,1.));
#268=DIRECTION('',(0.,-1.,0.));
#269=DIRECTION('',(-6.26819684183128E-17,-1.,0.));
#270=DIRECTION('',(1.,-6.26819684183128E-17,0.));
#271=DIRECTION('',(1.,-6.26819684183128E-17,0.));
#272=DIRECTION('',(0.,0.,-1.));
#273=DIRECTION('',(1.,0.,0.));
#274=CARTESIAN_POINT('',(0.,0.,0.));
#275=CARTESIAN_POINT('',(0.380463571214676,0.132430119681358,0.0028));
#276=CARTESIAN_POINT('',(0.380463571214676,0.132430119681358,0.));
#277=CARTESIAN_POINT('',(0.320113571214676,0.132430119681358,0.));
#278=CARTESIAN_POINT('',(0.440813571214676,0.132430119681358,0.));
#279=CARTESIAN_POINT('',(0.320113571214676,0.132430119681358,0.0028));
#280=CARTESIAN_POINT('',(0.320113571214676,0.132430119681358,0.0028));
#281=CARTESIAN_POINT('',(0.380463571214676,0.132430119681358,0.0028));
#282=CARTESIAN_POINT('',(0.440813571214676,0.132430119681358,0.0028));
#283=CARTESIAN_POINT('',(0.440813571214676,0.132430119681358,0.0028));
#284=CARTESIAN_POINT('',(0.320113571214676,0.0945301196813583,0.0028));
#285=CARTESIAN_POINT('',(0.320113571214676,0.0945301196813583,0.));
#286=CARTESIAN_POINT('',(0.320113571214676,0.0566301196813583,0.));
#287=CARTESIAN_POINT('',(0.320113571214676,0.0566301196813583,0.0028));
#288=CARTESIAN_POINT('',(0.320113571214676,0.0566301196813583,0.0028));
#289=CARTESIAN_POINT('',(0.320113571214676,0.0945301196813583,0.0028));
#290=CARTESIAN_POINT('',(0.380463571214676,0.0566301196813583,0.0028));
#291=CARTESIAN_POINT('',(0.380463571214676,0.0566301196813583,0.));
#292=CARTESIAN_POINT('',(0.440813571214676,0.0566301196813583,0.));
#293=CARTESIAN_POINT('',(0.440813571214676,0.0566301196813583,0.0028));
#294=CARTESIAN_POINT('',(0.440813571214676,0.0566301196813583,0.0028));
#295=CARTESIAN_POINT('',(0.380463571214676,0.0566301196813583,0.0028));
#296=CARTESIAN_POINT('',(0.440813571214676,0.0945301196813583,0.0028));
#297=CARTESIAN_POINT('',(0.440813571214676,0.0945301196813583,0.));
#298=CARTESIAN_POINT('',(0.440813571214676,0.0945301196813583,0.0028));
#299=CARTESIAN_POINT('',(0.380463571214676,0.0945301196813583,0.0028));
#300=CARTESIAN_POINT('',(0.380463571214676,0.0945301196813583,0.));
#301=CARTESIAN_POINT('',(0.380463571214676,0.124430119681358,0.));
#302=CARTESIAN_POINT('',(0.325113571214676,0.124430119681358,0.));
#303=CARTESIAN_POINT('',(0.435813571214676,0.124430119681358,0.));
#304=CARTESIAN_POINT('',(0.325113571214676,0.0920301196813583,0.));
#305=CARTESIAN_POINT('',(0.325113571214676,0.0596301196813583,0.));
#306=CARTESIAN_POINT('',(0.380463571214676,0.0596301196813583,0.));
#307=CARTESIAN_POINT('',(0.435813571214676,0.0596301196813583,0.));
#308=CARTESIAN_POINT('',(0.435813571214676,0.0920301196813583,0.));
#309=CARTESIAN_POINT('',(0.325113571214676,0.0920301196813583,-0.0001));
#310=CARTESIAN_POINT('',(0.325113571214676,0.124430119681358,-0.0001));
#311=CARTESIAN_POINT('',(0.325113571214676,0.124430119681358,-0.0001));
#312=CARTESIAN_POINT('',(0.325113571214676,0.0920301196813583,-0.0001));
#313=CARTESIAN_POINT('',(0.325113571214676,0.0596301196813583,-0.0001));
#314=CARTESIAN_POINT('',(0.325113571214676,0.0596301196813583,-0.0001));
#315=CARTESIAN_POINT('',(0.380463571214676,0.124430119681358,-0.0001));
#316=CARTESIAN_POINT('',(0.435813571214676,0.124430119681358,-0.0001));
#317=CARTESIAN_POINT('',(0.435813571214676,0.124430119681358,-0.0001));
#318=CARTESIAN_POINT('',(0.380463571214676,0.124430119681358,-0.0001));
#319=CARTESIAN_POINT('',(0.435813571214676,0.0920301196813583,-0.0001));
#320=CARTESIAN_POINT('',(0.435813571214676,0.0596301196813583,-0.0001));
#321=CARTESIAN_POINT('',(0.435813571214676,0.0596301196813583,-0.0001));
#322=CARTESIAN_POINT('',(0.435813571214676,0.0920301196813583,-0.0001));
#323=CARTESIAN_POINT('',(0.380463571214676,0.0596301196813583,-0.0001));
#324=CARTESIAN_POINT('',(0.380463571214676,0.0596301196813583,-0.0001));
#325=CARTESIAN_POINT('',(0.380463571214676,0.0945301196813583,-0.0001));
#326=MECHANICAL_DESIGN_GEOMETRIC_PRESENTATION_REPRESENTATION('',(#197,#12),
#327);
#327=(
GEOMETRIC_REPRESENTATION_CONTEXT(3)
GLOBAL_UNCERTAINTY_ASSIGNED_CONTEXT((#328))
GLOBAL_UNIT_ASSIGNED_CONTEXT((#331,#330,#329))
REPRESENTATION_CONTEXT('Part 8','TOP_LEVEL_ASSEMBLY_PART')
);
#328=UNCERTAINTY_MEASURE_WITH_UNIT(LENGTH_MEASURE(1.E-8),#331,
'DISTANCE_ACCURACY_VALUE','Maximum Tolerance applied to model');
#329=(
NAMED_UNIT(*)
SI_UNIT($,.STERADIAN.)
SOLID_ANGLE_UNIT()
);
#330=(
NAMED_UNIT(*)
PLANE_ANGLE_UNIT()
SI_UNIT($,.RADIAN.)
);
#331=(
LENGTH_UNIT()
NAMED_UNIT(*)
SI_UNIT($,.METRE.)
);
#332=PRODUCT_DEFINITION_SHAPE('','',#333);
#333=PRODUCT_DEFINITION('','',#335,#334);
#334=PRODUCT_DEFINITION_CONTEXT('',#341,'design');
#335=PRODUCT_DEFINITION_FORMATION_WITH_SPECIFIED_SOURCE('','',#337,
 .NOT_KNOWN.);
#336=PRODUCT_RELATED_PRODUCT_CATEGORY('','',(#337));
#337=PRODUCT('Part 8','Part 8','Part 8',(#339));
#338=PRODUCT_CATEGORY('','');
#339=PRODUCT_CONTEXT('',#341,'mechanical');
#340=APPLICATION_PROTOCOL_DEFINITION('international standard',
'ap242_managed_model_based_3d_engineering',2020,#341);
#341=APPLICATION_CONTEXT('managed model based 3d engineering');
ENDSEC;
END-ISO-10303-21;
